{
  "accessors": [
    {
      "bufferView": 0,
      "componentType": 5126,
      "count": 8093,
      "max": [
        1.3013720512390137,
        1.0,
        1.2017070055007935
      ],
      "min": [
        -1.0,
        -1.045469045639038,
        -1.2017070055007935
      ],
      "type": "VEC3"
    },
    {
      "bufferView": 1,
      "componentType": 5126,
      "count": 8093,
      "type": "VEC3"
    },
    {
      "bufferView": 2,
      "componentType": 5126,
      "count": 8093,
      "type": "VEC2"
    },
    {
      "bufferView": 3,
      "componentType": 5125,
      "count": 28350,
      "type": "SCALAR"
    }
  ],
  "asset": {
    "copyright": "NVIDIA Corporation",
    "generator": "Iray glTF plugin",
    "version": "2.0"
  },
  "bufferViews": [
    {
      "buffer": 0,
      "byteLength": 97116,
      "byteStride": 12
    },
    {
      "buffer": 0,
      "byteLength": 97116,
      "byteOffset": 97116,
      "byteStride": 12
    },
    {
      "buffer": 0,
      "byteLength": 64744,
      "byteOffset": 194232,
      "byteStride": 8
    },
    {
      "buffer": 0,
      "byteLength": 113400,
      "byteOffset": 258976
    }
  ],
  "buffers": [
    {
      "byteLength": 372376,
      "uri": "shader_ball.bin"
    }
  ],
  "cameras": [
    {
      "name": "default",
      "perspective": {
        "aspectRatio": 1.3333333730697632,
        "yfov": 0.7362615466117859,
        "zfar": 10000.0,
        "znear": 0.10000000149011612
      },
      "type": "perspective"
    }
  ],
  "materials": [
    {
      "doubleSided": true,
      "name": "blinn2SG",
      "pbrMetallicRoughness": {
        "roughnessFactor": 0.6
      }
    }
  ],
  "meshes": [
    {
      "name": "polySurfaceShape11",
      "primitives": [
        {
          "attributes": {
            "NORMAL": 1,
            "POSITION": 0,
            "TEXCOORD_0": 2
          },
          "indices": 3,
          "material": 0,
          "mode": 4
        }
      ]
    }
  ],
  "nodes": [
    {
      "camera": 0,
      "matrix": [
        -0.5007145417658573,
        1.3190265968514163e-07,
        0.8656126938498631,
        0.0,
        0.39035914223452695,
        0.892542810433716,
        0.22580404539530088,
        0.0,
        -0.7725953983820218,
        0.45096394842012943,
        -0.44690939069551067,
        -0.0,
        -5.4127602684444795,
        3.0078693000514987,
        -2.9272519782591875,
        1.0
      ],
      "name": "persp"
    },
    {
      "mesh": 0,
      "name": "polySurface11"
    }
  ],
  "scene": 0,
  "scenes": [
    {
      "nodes": [
        0,
        1
      ]
    }
  ]
}
